<svg width="80" height="24" viewBox="0 0 80 24" fill="none" xmlns="http://www.w3.org/2000/svg">
<path d="M25.2 5.94801C24.912 4.86801 24.06 4.01601 22.976 3.72401C21.016 3.20001 13.152 3.20001 13.152 3.20001C13.152 3.20001 5.29196 3.20001 3.32796 3.72401C2.24796 4.01201 1.39596 4.86401 1.10396 5.94801C0.579956 7.90801 0.579956 12 0.579956 12C0.579956 12 0.579956 16.092 1.10396 18.052C1.39196 19.132 2.24396 19.984 3.32796 20.276C5.29196 20.8 13.152 20.8 13.152 20.8C13.152 20.8 21.016 20.8 22.976 20.276C24.056 19.988 24.908 19.136 25.2 18.052C25.724 16.092 25.724 12 25.724 12C25.724 12 25.724 7.90801 25.2 5.94801Z" fill="#FF0000"/>
<path d="M10.64 15.772L17.172 12L10.64 8.22803V15.772Z" fill="white"/>
<path d="M37.076 19.212C36.58 18.876 36.224 18.356 36.016 17.648C35.808 16.94 35.7 16 35.7 14.824V13.224C35.7 12.036 35.82 11.084 36.06 10.364C36.3 9.64402 36.676 9.12002 37.184 8.79202C37.692 8.46402 38.36 8.29602 39.188 8.29602C40.004 8.29602 40.656 8.46402 41.148 8.80002C41.64 9.13602 42 9.66002 42.228 10.372C42.456 11.084 42.568 12.036 42.568 13.22V14.82C42.568 15.996 42.4559 16.94 42.2359 17.652C42.0159 18.364 41.656 18.888 41.156 19.216C40.66 19.544 39.984 19.712 39.132 19.712C38.26 19.716 37.572 19.548 37.076 19.212ZM39.864 17.484C40 17.124 40.072 16.536 40.072 15.724V12.288C40.072 11.496 40.004 10.92 39.864 10.552C39.728 10.188 39.4839 10.004 39.1359 10.004C38.7999 10.004 38.564 10.188 38.424 10.552C38.288 10.916 38.216 11.496 38.216 12.288V15.724C38.216 16.54 38.28 17.128 38.412 17.484C38.544 17.844 38.784 18.024 39.132 18.024C39.484 18.024 39.724 17.844 39.864 17.484Z" fill="white"/>
<path d="M75.2639 14.852V15.408C75.2639 16.116 75.2839 16.644 75.3279 17C75.3679 17.352 75.4559 17.612 75.5879 17.772C75.7199 17.932 75.9239 18.016 76.1999 18.016C76.5719 18.016 76.8279 17.872 76.9639 17.584C77.0999 17.296 77.1759 16.816 77.1879 16.144L79.3279 16.268C79.3399 16.364 79.3439 16.496 79.3439 16.664C79.3439 17.684 79.0639 18.444 78.5079 18.948C77.9519 19.452 77.1639 19.704 76.1439 19.704C74.9199 19.704 74.0639 19.32 73.5719 18.552C73.0799 17.784 72.8359 16.6 72.8359 14.992V13.068C72.8359 11.412 73.0919 10.208 73.5999 9.44402C74.1079 8.68402 74.9799 8.30402 76.2159 8.30402C77.0679 8.30402 77.7199 8.46002 78.1759 8.77202C78.6319 9.08402 78.9519 9.56802 79.1399 10.228C79.3239 10.888 79.4199 11.8 79.4199 12.96V14.848H75.2639V14.852ZM75.5799 10.212C75.4559 10.368 75.3719 10.624 75.3279 10.976C75.2839 11.328 75.2639 11.868 75.2639 12.584V13.376H77.0799V12.584C77.0799 11.876 77.0559 11.34 77.0079 10.976C76.9599 10.612 76.8719 10.352 76.7479 10.204C76.6239 10.056 76.4279 9.98002 76.1639 9.98002C75.8999 9.97602 75.7039 10.056 75.5799 10.212Z" fill="white"/>
<path d="M31.0359 14.644L28.2119 4.44803H30.6759L31.6639 9.06803C31.9159 10.208 32.0999 11.176 32.2199 11.98H32.2919C32.3759 11.404 32.5599 10.44 32.8479 9.08403L33.8719 4.44403H36.3359L33.4799 14.644V19.536H31.0359V14.644Z" fill="white"/>
<path d="M50.5799 8.51202V19.532H48.6399L48.4239 18.184H48.3719C47.8439 19.204 47.0519 19.712 45.9999 19.712C45.2679 19.712 44.7279 19.472 44.3799 18.992C44.0319 18.512 43.8599 17.764 43.8599 16.744V8.51202H46.3399V16.604C46.3399 17.096 46.3919 17.448 46.4999 17.656C46.6079 17.864 46.7879 17.972 47.0399 17.972C47.2559 17.972 47.4639 17.908 47.6599 17.776C47.8559 17.644 48.0039 17.476 48.0999 17.272V8.51202H50.5799Z" fill="white"/>
<path d="M63.3079 8.51202V19.532H61.3679L61.1519 18.184H61.0999C60.5719 19.204 59.7799 19.712 58.7279 19.712C57.9959 19.712 57.4559 19.472 57.1079 18.992C56.7599 18.512 56.5879 17.764 56.5879 16.744V8.51202H59.0679V16.604C59.0679 17.096 59.1199 17.448 59.2279 17.656C59.3359 17.864 59.5159 17.972 59.7679 17.972C59.9839 17.972 60.1919 17.908 60.3879 17.776C60.5839 17.644 60.7319 17.476 60.8279 17.272V8.51202H63.3079Z" fill="white"/>
<path d="M57.3239 6.44406H54.8599V19.5321H52.4319V6.44406H49.9679V4.44806H57.3199V6.44406H57.3239Z" fill="white"/>
<path d="M71.52 10.276C71.368 9.58003 71.128 9.07603 70.792 8.76403C70.456 8.45203 69.996 8.29603 69.408 8.29603C68.952 8.29603 68.528 8.42403 68.132 8.68403C67.736 8.94003 67.432 9.28003 67.216 9.70003H67.196V3.89203H64.804V19.536H66.852L67.104 18.492H67.156C67.348 18.864 67.636 19.156 68.02 19.372C68.404 19.588 68.828 19.696 69.296 19.696C70.136 19.696 70.752 19.308 71.148 18.536C71.544 17.764 71.74 16.556 71.74 14.912V13.168C71.744 11.936 71.668 10.972 71.52 10.276ZM69.244 14.772C69.244 15.576 69.212 16.204 69.144 16.66C69.08 17.116 68.968 17.44 68.812 17.632C68.656 17.824 68.448 17.92 68.184 17.92C67.98 17.92 67.792 17.872 67.616 17.776C67.444 17.68 67.3 17.536 67.192 17.344V11.084C67.276 10.784 67.42 10.54 67.624 10.348C67.828 10.156 68.048 10.06 68.288 10.06C68.54 10.06 68.736 10.16 68.872 10.356C69.008 10.552 69.104 10.888 69.16 11.352C69.212 11.82 69.24 12.484 69.24 13.348V14.772H69.244Z" fill="white"/>
</svg>
